<?xml version="1.0" encoding="UTF-8"?>
<svg width="50px" height="36px" viewBox="0 0 50 36" version="1.1" xmlns="http://www.w3.org/2000/svg" xmlns:xlink="http://www.w3.org/1999/xlink">
    <title>Group 9</title>
    <defs>
        <polygon id="path-1" points="0.188960177 0.209867257 30.1084292 0.209867257 30.1084292 18.1415929 0.188960177 18.1415929"></polygon>
        <polygon id="path-3" points="0 0.0282666667 36.2706058 0.0282666667 36.2706058 33.1134749 0 33.1134749"></polygon>
    </defs>
    <g id="Symbols" stroke="none" stroke-width="1" fill="none" fill-rule="evenodd">
        <g id="Menu-Copy" transform="translate(-7.000000, -13.000000)">
            <g id="Group-9" transform="translate(7.000000, 13.000000)">
                <g id="Group-3" transform="translate(18.627451, 16.666667)">
                    <mask id="mask-2" fill="white">
                        <use xlink:href="#path-1"></use>
                    </mask>
                    <g id="Clip-2"></g>
                    <path d="M27.8177212,0.209867257 C27.2475885,3.06362832 25.0732522,5.46495575 22.0566593,6.17557522 C20.3814381,6.57115044 18.7051106,6.38265487 17.2391814,5.74504425 C17.2845354,9.86119469 14.483208,13.6047788 10.3101991,14.5879646 C7.51683628,15.2463717 4.72369469,14.5215929 2.64139381,12.8614159 C1.93276549,13.7339823 1.1055531,14.494823 0.188960177,15.13 C3.59183628,18.0769027 8.49073009,19.0437168 12.9382965,17.2100885 C16.4982522,15.7432743 19.0004646,12.7963717 20.0301106,9.3760177 C20.9093142,9.39017699 21.8042257,9.29814159 22.7000221,9.08752212 C26.1296681,8.27889381 28.7891814,5.91628319 30.1084292,2.92159292 L27.8177212,0.209867257 Z" id="Fill-1" fill="#FFFFFF" mask="url(#mask-2)"></path>
                </g>
                <path d="M48.6173923,12.3616414 C46.7961412,7.04234468 41.3236908,3.88012616 35.8592684,5.20222114 C34.9596814,5.420242 34.1167367,5.7491054 33.3333333,6.16705505 C34.0848475,7.00638956 34.7415862,7.94557395 35.2821412,8.97407361 C35.7172166,8.7755189 36.1757071,8.60925509 36.6564978,8.49360327 C40.3737055,7.59403822 44.0933662,9.61714354 45.5379682,13.1070804 L44.1495625,13.4430432 L48.4122312,18.627451 L50,12.0268237 L48.6173923,12.3616414 Z" id="Fill-4" fill="#FFFFFF"></path>
                <g id="Group-8">
                    <mask id="mask-4" fill="white">
                        <use xlink:href="#path-3"></use>
                    </mask>
                    <g id="Clip-7"></g>
                    <path d="M35.3271853,10.2647111 C34.564301,8.42893333 33.405532,6.87471111 31.9912739,5.65471111 C32.0042611,5.65248889 32.0185917,5.65248889 32.0300115,5.65004444 L32.4187309,2.67382222 L30.0662618,1.5496 L28.3248614,3.45893333 C26.9235905,2.91937778 25.4260355,2.62471111 23.900043,2.61426667 L22.7036559,0.0282666667 L20.119209,0.402266667 L19.5916612,3.35048889 C19.4161105,3.41226667 19.2407837,3.47782222 19.0663526,3.54915556 C17.8065971,4.0656 16.6823112,4.7656 15.7026755,5.59982222 L12.9249885,4.58093333 L11.3647367,6.65848889 L12.9579043,8.92204444 C12.5116382,9.71315556 12.1513562,10.5509333 11.8887019,11.4202667 C10.9986329,11.4040444 10.0919941,11.4962667 9.18647482,11.7089333 C5.71419814,12.5211556 3.02383866,14.8933778 1.6883993,17.9022667 L4.00571351,20.6260444 C4.58409041,17.7596 6.78452009,15.3467111 9.83762467,14.6327111 C11.533346,14.2364889 13.2299631,14.4258222 14.7134114,15.0662667 C14.6677324,10.9318222 17.5027421,7.1716 21.7262594,6.18426667 C26.618392,5.04026667 31.520377,8.04782222 32.6728764,12.9031556 C33.8258237,17.7596 30.7939912,22.6231556 25.9014107,23.7671556 C23.58544,24.3093778 21.2683497,23.9189333 19.3466963,22.8429333 C19.046424,26.0482667 16.7293337,28.8491556 13.3972289,29.6284889 C9.6654327,30.5013778 5.93094953,28.5382667 4.47907347,25.1518222 L5.87452251,24.8258222 L1.59323469,19.7951556 L-0.000156741709,26.2000444 L1.38835088,25.8751556 C3.21685488,31.0364889 8.71199528,34.1051556 14.1990747,32.8220444 C17.4839331,32.0544889 20.0683799,29.8891556 21.4685312,27.1127111 C23.7728583,27.5531556 26.2276573,27.3556 28.5588544,26.4022667 C34.9174177,23.8009333 37.9494741,16.5758222 35.3271853,10.2647111" id="Fill-6" fill="#0078FC" mask="url(#mask-4)"></path>
                </g>
            </g>
        </g>
    </g>
</svg>